<svg width="510" height="422" viewBox="0 0 510 422" fill="none" xmlns="http://www.w3.org/2000/svg">
    <path d="M173.939 327.874L176.031 342.258C176.36 344.523 178.057 346.47 180.493 347.381C182.677 348.197 181.999 350.998 179.617 350.998L124.554 350.998C122.172 350.998 121.493 348.197 123.678 347.381C126.114 346.47 127.81 344.523 128.139 342.258L130.231 327.874L173.939 327.874Z" fill="#C5C5EE"/>
    <rect x="67.8483" y="327.874" width="128.834" height="168.475" rx="24.261" transform="rotate(-90 67.8483 327.874)" fill="#D7D7F7"/>
    <mask id="mask0_1_3270" style="mask-type:alpha" maskUnits="userSpaceOnUse" x="67" y="199" width="169" height="129">
        <rect x="67.4666" y="199.04" width="168.475" height="128.834" rx="22.7446" fill="url(#paint0_linear_1_3270)"/>
    </mask>
    <g mask="url(#mask0_1_3270)">
        <path d="M67.849 232.634C67.849 216.799 67.849 208.881 72.7684 203.962C77.6879 199.042 85.6056 199.042 101.441 199.042H202.732C218.568 199.042 226.485 199.042 231.405 203.962C236.324 208.881 236.324 216.799 236.324 232.634V308.056H67.849V232.634Z" fill="#E3E4FB"/>
    </g>
    <rect x="89.193" y="217.334" width="124.641" height="79.5202" rx="8.39802" fill="#F5F5FF"/>
    <path d="M187.795 260.344C187.795 271.467 178.778 280.484 167.655 280.484C156.532 280.484 147.515 271.467 147.515 260.344C147.515 249.221 156.532 240.204 167.655 240.204C178.778 240.204 187.795 249.221 187.795 260.344ZM154.725 260.344C154.725 267.485 160.514 273.274 167.655 273.274C174.795 273.274 180.584 267.485 180.584 260.344C180.584 253.203 174.795 247.415 167.655 247.415C160.514 247.415 154.725 253.203 154.725 260.344Z" fill="#E6E6FD"/>
    <path d="M147.512 260.348C147.512 257.703 148.033 255.084 149.045 252.641C150.057 250.197 151.541 247.977 153.411 246.107C155.281 244.237 157.501 242.753 159.945 241.741C162.388 240.729 165.007 240.208 167.652 240.208L167.652 247.354C165.946 247.354 164.256 247.69 162.679 248.343C161.103 248.996 159.67 249.953 158.464 251.16C157.257 252.366 156.3 253.799 155.647 255.375C154.994 256.952 154.658 258.642 154.658 260.348L147.512 260.348Z" fill="#FDFDFF"/>
    <path d="M89.193 225.732C89.193 221.094 92.9529 217.334 97.591 217.334H123.369V296.854H94.0853C91.3834 296.854 89.193 294.664 89.193 291.962V225.732Z" fill="#9597BA"/>
    <circle cx="95.8887" cy="224.281" r="1.22854" fill="#C3C5DC"/>
    <circle cx="99.9092" cy="224.281" r="1.22854" fill="#C3C5DC"/>
    <circle cx="103.931" cy="224.281" r="1.22854" fill="#C3C5DC"/>
    <circle cx="95.7779" cy="233.415" r="2.01034" fill="#A8ABD0"/>
    <circle cx="95.7787" cy="239.222" r="2.01034" fill="#A8ABD0"/>
    <circle cx="95.7787" cy="247.93" r="2.01034" fill="#A8ABD0"/>
    <circle cx="95.7787" cy="253.737" r="2.01034" fill="#A8ABD0"/>
    <circle cx="95.7787" cy="262.23" r="2.01034" fill="#A8ABD0"/>
    <circle cx="95.7787" cy="268.038" r="2.01034" fill="#A8ABD0"/>
    <circle cx="95.7787" cy="273.845" r="2.01034" fill="#A8ABD0"/>
    <rect x="100.022" y="232.523" width="10.0517" height="1.78697" rx="0.893486" fill="#A8ABD0"/>
    <rect x="100.022" y="247.039" width="7.37126" height="1.78697" rx="0.893486" fill="#A8ABD0"/>
    <rect x="100.022" y="238.331" width="16.7529" height="1.78697" rx="0.893486" fill="#A8ABD0"/>
    <rect x="100.022" y="252.847" width="10.7218" height="1.78697" rx="0.893486" fill="#A8ABD0"/>
    <rect x="100.022" y="261.109" width="16.7529" height="1.78697" rx="0.893486" fill="#A8ABD0"/>
    <rect x="100.022" y="266.921" width="14.7425" height="1.78697" rx="0.893486" fill="#A8ABD0"/>
    <rect x="100.022" y="272.949" width="10.7218" height="1.78697" rx="0.893486" fill="#A8ABD0"/>
    <rect x="100.022" y="247.039" width="7.37126" height="1.78697" rx="0.893486" fill="#A8ABD0"/>
    <rect x="100.022" y="252.847" width="10.7218" height="1.78697" rx="0.893486" fill="#A8ABD0"/>
    <rect x="123.367" y="227.383" width="90.4654" height="0.223371" fill="#E7E8EF"/>
    <circle cx="152.085" cy="317.964" r="4.57399" fill="#E4E4FF"/>
    <path d="M56.0309 314.534C63.3839 295.868 80.7182 284.194 90.0273 283.487C100.397 283.075 118.101 283.499 121.211 295.094C125.1 309.588 118.893 313.908 116.065 325.397C113.237 336.886 115.181 342.102 116.065 343.693C116.948 345.284 115.567 349.982 109.204 349.982C96.7886 349.982 88.7231 350.349 76.6138 349.982C49.1699 355.7 46.8396 337.865 56.0309 314.534Z" fill="#EF8001"/>
    <path d="M67.6782 396.864C85.1902 388.861 57.1731 357.607 57.1741 345.979C57.1755 330.256 60.2456 322.537 60.2456 322.537" stroke="#EF8001" stroke-width="9.81758" stroke-linecap="round"/>
    <path d="M129.168 289.391C126.459 296.56 118.135 304.466 102.459 300.065C92.4221 296.272 86.9074 279.706 89.3021 273.37C92.2008 265.701 106.16 259.925 116.196 263.719C126.233 267.512 131.282 278.757 129.168 289.391Z" fill="#EF8001"/>
    <g opacity="0.4">
        <mask id="mask1_1_3270" style="mask-type:alpha" maskUnits="userSpaceOnUse" x="115" y="259" width="36" height="31">
            <ellipse cx="132.764" cy="274.414" rx="17.2705" ry="14.7684" fill="#FFB45F"/>
        </mask>
        <g mask="url(#mask1_1_3270)">
            <path d="M129.168 289.39C126.459 296.559 118.135 304.465 102.459 300.064C92.4221 296.271 86.9074 279.705 89.3021 273.369C92.2008 265.7 106.16 259.924 116.196 263.718C126.233 267.511 131.282 278.756 129.168 289.39Z" fill="#FFB45F"/>
        </g>
    </g>
    <path d="M107.144 283.866C106.972 284.322 108.121 285.65 108.121 285.65C108.121 285.65 109.861 285.414 110.033 284.958C110.205 284.502 109.698 283.888 108.901 283.587C108.103 283.285 107.317 283.41 107.144 283.866Z" fill="#2F3040"/>
    <path d="M96.9679 268.673C98.2792 269.302 100.301 269.432 101.148 269.419C106.427 268.28 107.329 266.067 107.399 264.62C102.965 255.859 100.575 256.716 99.3197 257.766C97.6063 259.199 95.3288 267.886 96.9679 268.673Z" fill="#FFB45F"/>
    <path d="M128.492 282.244C127.093 281.848 125.49 280.609 124.864 280.039C121.657 275.693 122.445 273.436 123.349 272.305C132.47 268.667 133.696 270.891 133.942 272.508C134.279 274.717 130.242 282.739 128.492 282.244Z" fill="#FFB45F"/>
    <path d="M100.189 269.776C99.1053 269.366 98.9029 258.81 101.313 258.483C103.724 258.155 109.356 266.191 108.643 267.827C104.986 270.192 105.13 271.644 100.189 269.776Z" fill="#EF8001"/>
    <path d="M125.349 280.937C126.432 281.347 133.566 273.563 131.975 271.724C130.384 269.884 120.844 272.185 120.297 273.884C121.476 278.076 120.407 279.07 125.349 280.937Z" fill="#F59527"/>
    <path d="M111.673 328.054C109.612 349.049 101.736 349.247 93.819 349.209C75.9155 349.123 75.975 338.111 81.6881 322.596C86.1175 310.571 95.5208 304.148 103.801 305.655C112.081 307.162 111.61 315.704 111.673 328.054Z" fill="#F59527"/>
    <path d="M88.0487 321.964C83.4754 315.676 71.9044 318.418 65.1776 320.823C61.0951 323.904 51.772 347.887 72.4878 346.248C90.335 344.836 93.0924 328.899 88.0487 321.964Z" fill="#EF8001"/>
    <path d="M105.397 343.692L108.256 315.104L109.204 307.1L117.977 312.817C116.261 319.869 112.063 339.118 114.35 339.118C117.977 339.118 120.067 349.409 111.115 349.409C106.917 349.409 104.826 345.217 105.397 343.692Z" fill="#EF8001"/>
    <path d="M108.667 278.455C108.943 278.609 109.046 278.964 108.829 279.193C108.754 279.272 108.674 279.346 108.588 279.414C108.353 279.6 108.083 279.738 107.794 279.821C107.505 279.903 107.203 279.928 106.905 279.893C106.607 279.858 106.318 279.765 106.056 279.619C105.793 279.473 105.562 279.277 105.376 279.042C105.189 278.806 105.051 278.536 104.968 278.247C104.886 277.959 104.862 277.656 104.896 277.358C104.909 277.25 104.929 277.143 104.957 277.038C105.037 276.732 105.393 276.633 105.669 276.787L105.777 276.846C105.993 276.967 106.061 277.243 106.032 277.49C106.015 277.639 106.027 277.79 106.068 277.934C106.109 278.079 106.179 278.214 106.272 278.331C106.365 278.449 106.481 278.547 106.612 278.62C106.743 278.693 106.887 278.74 107.036 278.757C107.186 278.774 107.337 278.762 107.481 278.721C107.626 278.68 107.761 278.611 107.878 278.517C108.073 278.363 108.343 278.275 108.559 278.396L108.667 278.455Z" fill="#2F3040"/>
    <path d="M117.815 284.173C118.091 284.327 118.195 284.681 117.977 284.911C117.903 284.99 117.822 285.063 117.737 285.131C117.502 285.318 117.232 285.456 116.943 285.538C116.654 285.62 116.352 285.645 116.054 285.61C115.755 285.576 115.467 285.483 115.204 285.337C114.942 285.191 114.711 284.994 114.524 284.759C114.338 284.524 114.199 284.254 114.117 283.965C114.035 283.676 114.01 283.374 114.045 283.076C114.057 282.967 114.078 282.86 114.105 282.755C114.186 282.45 114.542 282.351 114.818 282.504L114.925 282.564C115.142 282.685 115.209 282.961 115.181 283.207C115.163 283.356 115.176 283.507 115.217 283.652C115.258 283.796 115.327 283.931 115.42 284.049C115.514 284.166 115.629 284.265 115.76 284.338C115.892 284.411 116.036 284.457 116.185 284.475C116.334 284.492 116.485 284.479 116.63 284.438C116.774 284.397 116.909 284.328 117.027 284.235C117.221 284.081 117.491 283.993 117.708 284.113L117.815 284.173Z" fill="#2F3040"/>
    <path d="M87.2006 283.655L89.6491 283.107C97.953 299.293 113.829 299.642 122.55 297.982C111.837 306.222 89.1344 295.627 87.2006 283.655Z" fill="#93D374"/>
    <circle cx="4.84196" cy="4.84196" r="4.84196" transform="matrix(-0.9971 -0.076104 -0.076104 0.9971 112.063 298.012)" fill="#FC9700"/>
    <circle cx="4.36374" cy="4.36374" r="4.36374" transform="matrix(-0.9971 -0.076104 -0.076104 0.9971 111.582 297.971)" fill="#FCCD00"/>
    <path d="M103.172 287.732C108.745 286.158 112.924 287.727 114.317 289.701C114.549 291.504 113.621 293.635 108.745 295.11C106.105 295.909 101.78 299.536 98.9929 302.486C96.6743 304.941 92.5495 310.152 91.3307 311.337C84.0456 318.423 71.9399 315.659 70.2701 311.337C68.1804 305.928 61.4566 305.915 72.4753 295.11C77.9355 289.756 80.7397 292.949 85.148 295.11C88.2189 296.615 97.5998 289.305 103.172 287.732Z" fill="url(#paint1_linear_1_3270)"/>
    <rect x="239.025" y="1.49085" width="222.082" height="184.483" rx="17.2583" fill="#F3F3FF" stroke="#E0E0FE" stroke-width="1.04596"/>
    <circle cx="254.928" cy="12.8389" r="2.8484" fill="#E8E8FF"/>
    <circle cx="264.042" cy="12.8389" r="2.8484" fill="#E8E8FF"/>
    <circle cx="273.158" cy="12.8389" r="2.8484" fill="#E8E8FF"/>
    <circle cx="350.065" cy="172.92" r="5.69681" fill="#E6E6FF"/>
    <circle cx="372.852" cy="172.92" r="5.69681" fill="#FFEBE0"/>
    <circle cx="327.278" cy="172.92" r="5.69681" fill="#E6E6FF"/>
    <rect x="239.546" y="21.384" width="110.518" height="69.501" fill="#EAFAEA"/>
    <rect x="350.065" y="21.384" width="110.518" height="69.501" fill="#EDF2FF"/>
    <rect x="239.546" y="90.8849" width="110.518" height="69.501" fill="#FDFAE1"/>
    <rect x="350.065" y="90.8849" width="110.518" height="69.501" fill="#FEF4F4"/>
    <g opacity="0.8">
        <rect x="291.956" y="66.9535" width="10.2543" height="9.11489" fill="#F0BBA2"/>
        <circle cx="283.354" cy="57.3726" r="8.3894" fill="#758198"/>
        <circle cx="310.076" cy="57.9916" r="8.3894" fill="#8E99A8"/>
        <path d="M281.178 46.1866C281.178 37.4347 288.273 30.3399 297.025 30.3399C305.777 30.3399 312.872 37.4347 312.872 46.1866L312.872 49.2938C312.872 58.0456 305.777 65.1404 297.025 65.1404C288.273 65.1404 281.178 58.0456 281.178 49.2938L281.178 46.1866Z" fill="#646D80"/>
        <path d="M281.178 52.0925C281.178 43.5122 288.134 36.5565 296.714 36.5565C305.294 36.5565 312.25 43.5122 312.25 52.0925L312.25 55.8211C312.25 64.4014 305.294 71.357 296.714 71.357C288.134 71.357 281.178 64.4014 281.178 55.8211L281.178 52.0925Z" fill="#FFD2BB"/>
        <path d="M299.022 36.2264C299.939 42.6025 285.865 48.8457 280.695 52.0769C280.073 48.0381 279.755 33.737 294.055 31.5681C298.09 31.2549 298.728 34.1941 299.022 36.2264Z" fill="#646D80"/>
        <path d="M295.331 35.8148C294.884 43.9917 308.457 50.6153 313.31 53.6481C316.704 48.5575 311.799 30.2217 299.311 31.1948C296.262 31.7761 295.404 34.4748 295.331 35.8148Z" fill="#707B89"/>
        <path d="M301.07 60.6592C301.07 61.724 300.647 62.7451 299.894 63.498C299.141 64.251 298.12 64.6739 297.055 64.6739C295.991 64.6739 294.97 64.251 294.217 63.498C293.464 62.7451 293.041 61.724 293.041 60.6592L297.055 60.6592L301.07 60.6592Z" fill="white"/>
        <path d="M269.169 90.8807C269.169 82.7005 275.801 76.069 283.981 76.069H310.186C318.367 76.069 324.998 82.7005 324.998 90.8807H269.169Z" fill="#D5E9B5"/>
    </g>
    <g opacity="0.8">
        <path d="M399.855 131.157L416.748 131.329L416.748 145.179L399.854 145.007L399.855 131.157Z" fill="#F2C4AC"/>
        <path d="M399.855 131.157L416.748 131.329L416.748 145.179L399.854 145.007L399.855 131.157Z" fill="url(#paint2_linear_1_3270)" fill-opacity="0.7"/>
        <path d="M421.074 127.96C417.801 135.162 415.486 135.406 414.627 133.672L408.936 115.119L393.673 111.324L391.781 103.718C391.124 101.076 393.065 98.5792 395.765 98.8995C400.542 99.4661 406.607 100.653 414.628 101.327C419.386 101.726 423.715 102.36 423.861 108.002C427.103 110.761 425.44 118.354 421.074 127.96Z" fill="#798D9D"/>
        <path d="M392.548 135.437C390.178 132.072 391.41 116.33 392.542 110.083C394.397 110.234 402.66 111.272 408.177 111.901C410.631 112.18 412.701 114.039 413.295 116.436C414.557 121.532 416.683 129.62 417.398 133.677C416.067 134.836 411.637 137.641 404.559 139.595C395.764 141.408 393.496 136.784 392.548 135.437Z" fill="#FFCFB6"/>
        <rect x="412.953" y="120.302" width="6.91235" height="8.72777" rx="3.29751" transform="rotate(12.8744 412.953 120.302)" fill="#F9CBB4"/>
        <path d="M390.033 104.43C390.242 100.182 394 97.01 398.223 97.5172L417.779 99.8661C421.456 100.308 424.163 103.538 423.954 107.235C423.733 111.161 420.324 114.122 416.407 113.793L396.782 112.144C392.825 111.812 389.837 108.396 390.033 104.43Z" fill="#6C8598"/>
        <path d="M401.695 130.332C401.597 131.234 401.145 132.06 400.438 132.628C399.732 133.197 398.828 133.461 397.926 133.363C397.024 133.265 396.198 132.813 395.63 132.106C395.062 131.4 394.797 130.496 394.895 129.594L398.295 129.963L401.695 130.332Z" fill="white"/>
    </g>
    <path d="M376.27 160.385C376.27 151.576 383.412 144.434 392.221 144.434H420.705C429.515 144.434 436.656 151.576 436.656 160.385H376.27Z" fill="#FBDBDB"/>
    <ellipse cx="387.008" cy="50.1624" rx="3.0594" ry="3.67128" fill="#FDD9C6"/>
    <ellipse cx="421.273" cy="50.1624" rx="3.0594" ry="3.67128" fill="#FDD9C6"/>
    <path d="M387.62 46.048C387.62 36.8322 395.091 29.3613 404.307 29.3613C413.523 29.3613 420.994 36.8322 420.994 46.048L420.994 50.0528C420.994 59.2687 413.523 66.7396 404.307 66.7396C395.091 66.7396 387.62 59.2687 387.62 50.0528L387.62 46.048Z" fill="#FFD2BB"/>
    <mask id="mask2_1_3270" style="mask-type:alpha" maskUnits="userSpaceOnUse" x="387" y="29" width="34" height="38">
        <path d="M387.62 46.048C387.62 36.8322 395.091 29.3613 404.307 29.3613C413.523 29.3613 420.994 36.8322 420.994 46.048L420.994 50.0528C420.994 59.2687 413.523 66.7396 404.307 66.7396C395.091 66.7396 387.62 59.2687 387.62 50.0528L387.62 46.048Z" fill="#FFD2BB"/>
    </mask>
    <g mask="url(#mask2_1_3270)">
        <ellipse cx="404.141" cy="29.9737" rx="7.95443" ry="4.28315" fill="white"/>
        <ellipse cx="386.504" cy="48.037" rx="5.94548" ry="4.28315" transform="rotate(-82.7151 386.504 48.037)" fill="white"/>
        <ellipse cx="5.94548" cy="4.28315" rx="5.94548" ry="4.28315" transform="matrix(-0.126803 -0.991928 -0.991928 0.126803 428.218 53.3913)" fill="white"/>
    </g>
    <path d="M371.712 90.8861C371.712 80.1888 380.383 71.517 391.081 71.517H418.425C429.123 71.517 437.795 80.1888 437.795 90.8861H371.712Z" fill="#D8E3FF"/>
    <path d="M391.904 70.3582C388.923 67.1055 386.397 53.8363 387.621 50.1656C389.456 48.9418 390.067 56.8963 394.963 56.8963C398.022 56.8963 400.852 52.0012 405.365 52.0012C409.878 52.0012 414.543 59.9557 416.991 55.0606C419.438 50.1656 419.439 49.7577 420.663 49.5537C421.275 52.6131 421.687 66.2563 414.543 72.8051C407.201 79.5352 398.634 77.7002 391.904 70.3582Z" fill="white"/>
    <path d="M402.306 59.9539C403.325 61.1777 405.977 62.891 408.424 59.9539" stroke="#AFB7C7" stroke-width="1.12343" stroke-linecap="round"/>
    <g opacity="0.8">
        <ellipse cx="288.173" cy="107.608" rx="11.0267" ry="11.0267" fill="#F2A660"/>
        <path fill-rule="evenodd" clip-rule="evenodd" d="M296.582 137.938C289.902 136.912 284.777 133.176 284.777 122.878C284.777 110.255 292.678 101.728 301.505 101.728C310.332 101.728 318.564 110.255 318.564 122.878C318.564 133.176 312.95 136.912 306.089 137.938H296.582Z" fill="#F2A660"/>
        <rect width="12.1339" height="17.0139" transform="matrix(-1 0 0 1 304.584 131.618)" fill="#F9C2A5"/>
        <path d="M288.819 123.094C288.819 133.514 298.408 142.488 305.912 142.488C313.416 142.488 317.542 133.514 317.542 123.094C317.542 112.674 310.543 105.635 303.039 105.635C295.536 105.635 288.819 112.674 288.819 123.094Z" fill="#FED7C2"/>
        <path d="M317.329 118.059C317.423 115.784 316.696 113.551 315.283 111.767L310.86 106.184C309.935 105.016 308.353 104.593 306.968 105.144C304.371 106.176 304.081 109.735 306.476 111.174L312.492 114.788C312.532 114.812 312.572 114.836 312.611 114.861C312.956 115.079 314.728 116.199 315.479 116.735C316.314 117.33 317.273 119.434 317.273 119.434L317.329 118.059Z" fill="#F2A660"/>
        <path d="M285.893 122.13C285.171 120.345 285.557 118.303 286.88 116.904L298.12 105.016C299.464 103.595 301.498 103.059 303.368 103.634C307.069 104.773 308.231 109.439 305.496 112.18L293.94 123.761C291.448 126.259 287.216 125.401 285.893 122.13Z" fill="#F2A660"/>
        <rect width="4.22051" height="7.52219" rx="2.11026" transform="matrix(-0.987573 0.157163 0.157164 0.987573 292.436 123.068)" fill="#FEDECE"/>
        <path d="M289.151 150.406C289.151 148.907 290.366 147.692 291.865 147.692H305.103C306.602 147.692 307.817 148.907 307.817 150.406V150.869H289.151V150.406Z" fill="white"/>
    </g>
    <path d="M272.018 160.386C272.018 151.443 279.58 144.364 288.503 144.952L310.016 146.371C318.408 146.924 325.654 152.444 328.416 160.386H272.018Z" fill="#EDE7B0"/>
    <path d="M339.849 349.921H462.21L421.385 421.447H299.024L339.849 349.921Z" fill="#C5C5EE"/>
    <rect y="348.837" width="510" height="10.2915" rx="5.14574" fill="#E3E4FB"/>
    <path d="M340.762 359.128H411.41L412.803 369.838L340.762 375.137V359.128Z" fill="white"/>
    <path d="M281.423 381.741L340.001 365.989H382.859L306.075 421.449H271.581L269.031 418.103C259.062 405.023 265.541 386.011 281.423 381.741Z" fill="#2F3152"/>
    <path d="M416.137 399.849C419.139 387.058 416.289 377.026 411.875 365.989H349.322L297.473 383.602C283.364 388.395 277.4 405.082 285.276 417.732L287.59 421.449L327.652 421.599H375.028C399.417 421.599 412.19 416.667 416.137 399.849Z" fill="#494B6D"/>
    <path d="M338.993 187.557L390.817 178.339L418.16 236.482C420.47 241.394 416.886 247.041 411.457 247.041H346.399C342.308 247.041 338.992 243.725 338.992 239.634L338.993 187.557Z" fill="#2F3040"/>
    <path d="M395.731 198.707C395.731 220.769 381.922 241.635 366.494 241.635C351.066 241.635 336.678 220.769 336.678 198.707C336.678 176.644 351.066 161.741 366.494 161.741C381.922 161.741 395.731 176.644 395.731 198.707Z" fill="#2F3040"/>
    <rect x="361.099" y="213.983" width="21.2078" height="29.7371" fill="#FACEB7"/>
    <mask id="mask3_1_3270" style="mask-type:alpha" maskUnits="userSpaceOnUse" x="361" y="213" width="22" height="31">
        <rect x="361.099" y="213.983" width="21.2078" height="29.7371" fill="#FFD6BC"/>
    </mask>
    <g mask="url(#mask3_1_3270)">
        <path d="M398.363 201.519C398.363 218.579 387.366 234.714 375.081 234.714C362.795 234.714 351.337 218.579 351.337 201.519C351.337 184.459 362.795 172.934 375.081 172.934C387.366 172.934 398.363 184.459 398.363 201.519Z" fill="#F3BFA2"/>
    </g>
    <path d="M388.659 199.231C388.659 216.291 371.736 232.462 359.45 232.462C347.164 232.462 341.632 216.291 341.632 199.231C341.632 182.171 353.09 170.646 365.376 170.646C377.662 170.646 388.659 182.171 388.659 199.231Z" fill="url(#paint3_linear_1_3270)"/>
    <path d="M363.435 216.191L351.054 217.182C351.301 218.75 353.283 221.887 357.245 221.887C360.464 221.887 363.105 218.337 363.435 216.191Z" fill="white"/>
    <path d="M339.184 188.765L346.361 172.037C347.452 169.494 350.228 168.118 352.913 168.789C357.045 169.822 358.585 174.887 355.727 178.045L343.525 191.531C341.552 193.711 338.041 191.473 339.184 188.765Z" fill="#2F3040"/>
    <path d="M393.775 197.403C395.037 194.283 394.363 190.713 392.05 188.268L372.404 167.491C370.055 165.007 366.5 164.071 363.232 165.076C356.764 167.065 354.733 175.221 359.513 180.012L379.71 200.254C384.065 204.619 391.463 203.119 393.775 197.403Z" fill="#2F3040"/>
    <rect x="382.329" y="199.036" width="7.37664" height="13.1474" rx="3.68832" transform="rotate(9.04229 382.329 199.036)" fill="#FFD1B4"/>
    <path d="M373.209 277.94H482.388C490.224 277.94 495.227 286.299 491.525 293.205L461.7 348.837H333.901L373.209 277.94Z" fill="#D7D7F6"/>
    <path d="M325.933 283.232C327.091 259.303 357.968 249.075 369.547 243.478L349.091 304L344.326 340.183C343.629 345.472 339.121 349.425 333.787 349.425H262.828V341.899L321.854 333.731C323.272 333.535 324.447 332.51 324.677 331.097C326.11 322.303 324.773 307.198 325.933 283.232Z" fill="#FFCDB3"/>
    <mask id="mask4_1_3270" style="mask-type:alpha" maskUnits="userSpaceOnUse" x="262" y="243" width="108" height="107">
        <path d="M325.933 283.232C327.091 259.303 357.968 249.075 369.547 243.478L349.091 304L344.326 340.183C343.629 345.472 339.121 349.425 333.787 349.425H262.828V341.899L321.854 333.731C323.272 333.535 324.447 332.51 324.677 331.097C326.11 322.303 324.773 307.198 325.933 283.232Z" fill="#FFD6BC"/>
    </mask>
    <g mask="url(#mask4_1_3270)">
        <path d="M311.808 236.218L383.959 240.829L376.997 300.707L303.23 290.273L311.808 236.218Z" fill="#FF7E65"/>
    </g>
    <path d="M390.251 242.506C390.014 242.459 389.729 241.596 389.407 240.392C388.211 235.916 384.12 233.598 379.589 234.559L360.879 238.528C357.582 239.227 355.41 242.386 355.938 245.715L338.544 264.834L334.258 277.303C332.827 281.468 332.385 285.909 332.968 290.274L340.807 348.913H408.813C408.813 331.457 408.399 305.557 413.696 298.279L419.041 304.789L439.606 293.037L428.063 263.84C424.967 256.009 418.551 249.942 410.432 247.706C400.54 244.981 390.73 242.602 390.251 242.506Z" fill="url(#paint4_linear_1_3270)"/>
    <path d="M454.461 333.676L439.605 293.041L418.453 304.205L427.134 323.196C427.464 323.917 426.917 324.732 426.124 324.7L384.374 323.007L384.961 336.521L444.831 345.478C451.479 346.473 456.769 339.99 454.461 333.676Z" fill="#FFD6BC"/>
    <rect x="271.009" y="342.298" width="96.1499" height="7.09832" rx="2.96199" fill="#EEEEFF"/>
    <path d="M198.225 291.422C196.417 287.262 199.465 282.612 204.001 282.612H284.501C289.934 282.612 294.85 285.835 297.016 290.818L322.487 349.401H223.433L198.225 291.422Z" fill="white"/>
    <ellipse cx="253.11" cy="319.084" rx="8.20235" ry="7.82085" transform="rotate(-1.47587 253.11 319.084)" fill="#F5F5FF"/>
    <rect x="353.456" y="313.737" width="9.69013" height="14.3907" rx="3.7758" transform="rotate(0.900702 353.456 313.737)" stroke="#E0E0EE" stroke-width="3.2364"/>
    <rect x="335.501" y="306.527" width="23.5028" height="28.7985" rx="2.1576" transform="rotate(0.900702 335.501 306.527)" fill="#E4E4FF"/>
    <path d="M377.973 320.38C378.808 321.376 384.76 322.533 390.504 323.108L390.504 336.83C384.21 336.278 367.514 334.455 364.131 333.582C362.568 333.179 360.376 330.37 361.099 328.704C359.713 328.455 358.564 325.583 359.713 324.434C358.097 323.139 357.894 320.883 359.139 319.839C356.267 318.69 357.152 314.52 357.724 314.57L369.168 315.573C374.89 316.074 376.928 319.135 377.973 320.38Z" fill="#FFD6BC"/>
    <rect x="41.1662" y="357.986" width="9.14798" height="62.8924" fill="#E3E4FB"/>
    <rect x="448.251" y="357.986" width="9.14798" height="62.8924" fill="#E3E4FB"/>
    <rect x="49.1701" y="359.129" width="399.081" height="19.4395" fill="#D6D7F4"/>
    <defs>
        <linearGradient id="paint0_linear_1_3270" x1="245.819" y1="243.292" x2="197.287" y2="157.913" gradientUnits="userSpaceOnUse">
            <stop stop-color="#D6DBEC"/>
            <stop offset="1" stop-color="#F3F7FA"/>
        </linearGradient>
        <linearGradient id="paint1_linear_1_3270" x1="114.349" y1="294.112" x2="63.2562" y2="308.68" gradientUnits="userSpaceOnUse">
            <stop stop-color="#E46E00"/>
            <stop offset="1" stop-color="#EF8001"/>
        </linearGradient>
        <linearGradient id="paint2_linear_1_3270" x1="406.932" y1="137.812" x2="406.894" y2="141.573" gradientUnits="userSpaceOnUse">
            <stop stop-color="#E0A282"/>
            <stop offset="1" stop-color="#E1A585" stop-opacity="0"/>
        </linearGradient>
        <linearGradient id="paint3_linear_1_3270" x1="341.905" y1="198.465" x2="376.21" y2="206.47" gradientUnits="userSpaceOnUse">
            <stop stop-color="#FFE9D9"/>
            <stop offset="1" stop-color="#FFD0B4"/>
        </linearGradient>
        <linearGradient id="paint4_linear_1_3270" x1="355.122" y1="245.37" x2="422.981" y2="335.816" gradientUnits="userSpaceOnUse">
            <stop stop-color="#FF8267"/>
            <stop offset="1" stop-color="#FF6158"/>
        </linearGradient>
    </defs>
</svg>
