<svg width="301" height="163" viewBox="0 0 301 163" fill="none" xmlns="http://www.w3.org/2000/svg">
    <path d="M100.072 114.581L101.159 122.012C101.33 123.182 102.212 124.188 103.479 124.658C104.615 125.08 104.262 126.527 103.023 126.527L74.3946 126.527C73.156 126.527 72.8032 125.08 73.939 124.658C75.2057 124.188 76.0876 123.182 76.2588 122.012L77.3464 114.581L100.072 114.581Z" fill="#C5C5EE"/>
    <rect x="44.9121" y="114.581" width="66.5564" height="87.5953" rx="12.5417" transform="rotate(-90 44.9121 114.581)" fill="#D7D7F7"/>
    <mask id="mask0_1_3891" style="mask-type:alpha" maskUnits="userSpaceOnUse" x="44" y="48" width="89" height="67">
        <rect x="44.7139" y="48.0248" width="87.5953" height="66.5564" rx="11.7579" fill="url(#paint0_linear_1_3891)"/>
    </mask>
    <g mask="url(#mask0_1_3891)">
        <path d="M44.9126 65.3912C44.9126 57.2051 44.9126 53.112 47.4557 50.5689C49.9988 48.0258 54.0919 48.0258 62.2781 48.0258H115.142C123.329 48.0258 127.422 48.0258 129.965 50.5689C132.508 53.112 132.508 57.2051 132.508 65.3912V104.343H44.9126V65.3912Z" fill="#E3E4FB"/>
    </g>
    <rect x="56.0098" y="57.4755" width="64.8047" height="41.0806" rx="4.34136" fill="#F5F5FF"/>
    <path d="M107.276 79.6947C107.276 85.4409 102.587 90.0992 96.8043 90.0992C91.0211 90.0992 86.3329 85.4409 86.3329 79.6947C86.3329 73.9485 91.0211 69.2903 96.8043 69.2903C102.587 69.2903 107.276 73.9485 107.276 79.6947ZM90.0819 79.6947C90.0819 83.3837 93.0916 86.3741 96.8043 86.3741C100.517 86.3741 103.527 83.3837 103.527 79.6947C103.527 76.0058 100.517 73.0153 96.8043 73.0153C93.0916 73.0153 90.0819 76.0058 90.0819 79.6947Z" fill="#E6E6FD"/>
    <path d="M86.3316 79.6968C86.3316 78.3304 86.6025 76.9775 87.1287 75.7151C87.655 74.4528 88.4263 73.3058 89.3986 72.3397C90.371 71.3736 91.5254 70.6072 92.7958 70.0843C94.0663 69.5614 95.4279 69.2923 96.803 69.2923L96.803 72.9839C95.9158 72.9839 95.0373 73.1576 94.2176 73.4949C93.3979 73.8323 92.6532 74.3267 92.0258 74.9501C91.3985 75.5734 90.9008 76.3134 90.5613 77.1279C90.2218 77.9423 90.047 78.8152 90.047 79.6968L86.3316 79.6968Z" fill="#FDFDFF"/>
    <path d="M56.0098 61.8168C56.0098 59.4192 57.9535 57.4755 60.3511 57.4755H73.7788V98.5561H58.5389C57.1421 98.5561 56.0098 97.4238 56.0098 96.027V61.8168Z" fill="#9597BA"/>
    <ellipse cx="59.4913" cy="61.0645" rx="0.638756" ry="0.635096" fill="#C3C5DC"/>
    <ellipse cx="61.5816" cy="61.0645" rx="0.638756" ry="0.635096" fill="#C3C5DC"/>
    <ellipse cx="63.6729" cy="61.0645" rx="0.638756" ry="0.635096" fill="#C3C5DC"/>
    <ellipse cx="59.4339" cy="65.7829" rx="1.04524" ry="1.03855" fill="#A8ABD0"/>
    <ellipse cx="59.4344" cy="68.7829" rx="1.04524" ry="1.03855" fill="#A8ABD0"/>
    <ellipse cx="59.4344" cy="73.2815" rx="1.04524" ry="1.03855" fill="#A8ABD0"/>
    <ellipse cx="59.4344" cy="76.2817" rx="1.04524" ry="1.03855" fill="#A8ABD0"/>
    <ellipse cx="59.4344" cy="80.6692" rx="1.04524" ry="1.03855" fill="#A8ABD0"/>
    <ellipse cx="59.4344" cy="83.6697" rx="1.04524" ry="1.03855" fill="#A8ABD0"/>
    <ellipse cx="59.4344" cy="86.6695" rx="1.04524" ry="1.03855" fill="#A8ABD0"/>
    <rect x="61.6403" y="65.3226" width="5.22618" height="0.923776" rx="0.461888" fill="#A8ABD0"/>
    <rect x="61.6401" y="72.8214" width="3.83253" height="0.923776" rx="0.461888" fill="#A8ABD0"/>
    <rect x="61.6401" y="68.3224" width="8.7103" height="0.923776" rx="0.461888" fill="#A8ABD0"/>
    <rect x="61.6401" y="75.8214" width="5.57459" height="0.923776" rx="0.461888" fill="#A8ABD0"/>
    <rect x="61.6401" y="80.0897" width="8.7103" height="0.923776" rx="0.461888" fill="#A8ABD0"/>
    <rect x="61.6401" y="83.0922" width="7.66507" height="0.923776" rx="0.461888" fill="#A8ABD0"/>
    <rect x="61.6401" y="86.2065" width="5.57459" height="0.923776" rx="0.461888" fill="#A8ABD0"/>
    <rect x="61.6401" y="72.8214" width="3.83253" height="0.923776" rx="0.461888" fill="#A8ABD0"/>
    <rect x="61.6401" y="75.8214" width="5.57459" height="0.923776" rx="0.461888" fill="#A8ABD0"/>
    <rect x="73.7783" y="62.6671" width="47.0356" height="0.115472" fill="#E7E8EF"/>
    <ellipse cx="88.7092" cy="109.461" rx="2.37815" ry="2.36295" fill="#E4E4FF"/>
    <path d="M29.1323 107.689C32.9554 98.0467 41.968 92.0157 46.8081 91.6505C52.1996 91.4374 61.4042 91.6566 63.0216 97.6468C65.0434 105.134 61.816 107.366 60.3456 113.301C58.8752 119.237 59.8861 121.931 60.3456 122.753C60.8051 123.575 60.0868 126.002 56.7783 126.002C50.3235 126.002 46.13 126.192 39.834 126.002C25.5651 128.956 24.3535 119.743 29.1323 107.689Z" fill="#EF8001"/>
    <path d="M35.1884 150.222C44.2935 146.087 29.7266 129.941 29.7271 123.934C29.7278 115.812 31.3241 111.824 31.3241 111.824" stroke="#EF8001" stroke-width="5.07521" stroke-linecap="round"/>
    <path d="M67.1586 94.7059C65.7505 98.4099 61.4243 102.494 53.2746 100.219C48.0565 98.258 45.1883 89.6983 46.4326 86.425C47.9389 82.4626 55.1949 79.4796 60.4129 81.4405C65.6309 83.4014 68.2565 89.2118 67.1586 94.7059Z" fill="#EF8001"/>
    <g opacity="0.4">
        <mask id="mask1_1_3891" style="mask-type:alpha" maskUnits="userSpaceOnUse" x="60" y="79" width="19" height="16">
            <ellipse cx="69.0278" cy="86.9636" rx="8.97945" ry="7.62945" fill="#FFB45F"/>
        </mask>
        <g mask="url(#mask1_1_3891)">
            <path d="M67.158 94.7C65.7492 98.4037 61.4216 102.488 53.2711 100.214C48.0526 98.2547 45.1854 89.6968 46.4304 86.4237C47.9376 82.4617 55.1952 79.4779 60.4136 81.4377C65.6321 83.3974 68.257 89.2066 67.158 94.7Z" fill="#FFB45F"/>
        </g>
    </g>
    <path d="M55.7073 91.8466C55.6177 92.0822 56.2149 92.7685 56.2149 92.7685C56.2149 92.7685 57.1197 92.6462 57.2093 92.4106C57.2989 92.175 57.0354 91.8577 56.6206 91.702C56.2058 91.5462 55.797 91.6109 55.7073 91.8466Z" fill="#2F3040"/>
    <path d="M50.4178 83.998C51.0996 84.3231 52.1506 84.3907 52.5908 84.3839C55.3354 83.796 55.804 82.6525 55.84 81.9051C53.5343 77.378 52.2917 77.8205 51.6395 78.3629C50.7489 79.1035 49.5657 83.5916 50.4178 83.998Z" fill="#FFB45F"/>
    <path d="M66.8066 91.0083C66.0789 90.8039 65.2457 90.1637 64.92 89.8692C63.2528 87.6239 63.6623 86.4581 64.1326 85.874C68.8746 83.9944 69.5121 85.1432 69.6403 85.9788C69.8154 87.1197 67.7161 91.2637 66.8066 91.0083Z" fill="#FFB45F"/>
    <path d="M52.0921 84.5688C51.5288 84.3571 51.4227 78.9028 52.6758 78.7338C53.9288 78.5648 56.8575 82.7171 56.4867 83.5622C54.5859 84.784 54.6611 85.5342 52.0921 84.5688Z" fill="#EF8001"/>
    <path d="M65.1727 90.3333C65.736 90.5449 69.4452 86.5239 68.6179 85.5733C67.7906 84.6228 62.8308 85.8117 62.5465 86.6893C63.1591 88.8553 62.6035 89.3685 65.1727 90.3333Z" fill="#F59527"/>
    <path d="M58.062 114.674C56.9908 125.52 52.8959 125.622 48.7794 125.603C39.4708 125.559 39.5018 119.87 42.4722 111.855C44.7752 105.642 49.6642 102.324 53.9692 103.102C58.2742 103.881 58.0296 108.294 58.062 114.674Z" fill="#F59527"/>
    <path d="M45.7789 111.528C43.4011 108.279 37.385 109.696 33.8875 110.938C31.7649 112.53 26.9175 124.92 37.6883 124.073C46.9676 123.344 48.4012 115.11 45.7789 111.528Z" fill="#EF8001"/>
    <path d="M54.7992 122.753L56.2855 107.984L56.7782 103.849L61.3395 106.803C60.4476 110.446 58.2649 120.39 59.4539 120.39C61.3397 120.39 62.4266 125.706 57.7719 125.706C55.5894 125.706 54.5019 123.54 54.7992 122.753Z" fill="#EF8001"/>
    <path d="M56.499 89.0511C56.6425 89.1304 56.696 89.3142 56.5827 89.433C56.5441 89.4734 56.5025 89.5112 56.4583 89.546C56.3359 89.6424 56.1957 89.7138 56.0455 89.7563C55.8953 89.7988 55.7382 89.8115 55.583 89.7937C55.4279 89.7758 55.2779 89.7278 55.1414 89.6523C55.005 89.5769 54.8849 89.4754 54.7879 89.3538C54.6909 89.2322 54.619 89.0928 54.5762 88.9436C54.5334 88.7944 54.5207 88.6383 54.5386 88.4841C54.5451 88.4285 54.5556 88.3735 54.5698 88.3196C54.6117 88.1613 54.7972 88.1097 54.9406 88.189L54.997 88.2202C55.1093 88.2823 55.1441 88.4249 55.1292 88.5521C55.1202 88.6291 55.1266 88.7072 55.148 88.7818C55.1694 88.8564 55.2054 88.9261 55.2538 88.9869C55.3023 89.0477 55.3624 89.0984 55.4306 89.1362C55.4988 89.1739 55.5739 89.1979 55.6514 89.2069C55.729 89.2158 55.8076 89.2094 55.8826 89.1882C55.9577 89.1669 56.0279 89.1312 56.0891 89.083C56.1901 89.0035 56.3303 88.9577 56.4426 89.0199L56.499 89.0511Z" fill="#2F3040"/>
    <path d="M61.2558 92.0048C61.3993 92.0841 61.4528 92.268 61.3395 92.3867C61.3009 92.4272 61.2593 92.465 61.2152 92.4998C61.0928 92.5961 60.9525 92.6676 60.8023 92.7101C60.6521 92.7526 60.495 92.7653 60.3399 92.7474C60.1848 92.7296 60.0347 92.6815 59.8983 92.6061C59.7618 92.5306 59.6417 92.4292 59.5447 92.3076C59.4477 92.186 59.3758 92.0466 59.333 91.8973C59.2903 91.7481 59.2775 91.592 59.2955 91.4379C59.302 91.3822 59.3124 91.3272 59.3267 91.2733C59.3686 91.115 59.554 91.0634 59.6975 91.1428L59.7539 91.1739C59.8662 91.2361 59.9009 91.3786 59.8861 91.5058C59.8771 91.5829 59.8835 91.6609 59.9048 91.7356C59.9262 91.8102 59.9622 91.8799 60.0107 91.9407C60.0592 92.0015 60.1192 92.0522 60.1875 92.0899C60.2557 92.1277 60.3307 92.1517 60.4083 92.1606C60.4858 92.1695 60.5644 92.1632 60.6395 92.1419C60.7146 92.1207 60.7847 92.0849 60.8459 92.0368C60.9469 91.9572 61.0872 91.9115 61.1995 91.9736L61.2558 92.0048Z" fill="#2F3040"/>
    <path d="M45.3384 91.7371L46.6113 91.4543C50.9292 99.8162 59.1833 99.9968 63.718 99.1394C58.1478 103.396 46.3441 97.9222 45.3384 91.7371Z" fill="#93D374"/>
    <ellipse cx="2.51739" cy="2.50148" rx="2.51739" ry="2.50148" transform="matrix(-0.997137 -0.0756203 -0.0765908 0.997063 58.2656 99.1543)" fill="#FC9700"/>
    <ellipse cx="2.26875" cy="2.25442" rx="2.26875" ry="2.25442" transform="matrix(-0.997137 -0.0756203 -0.0765908 0.997063 58.0151 99.1326)" fill="#FCCD00"/>
    <path d="M53.642 93.8432C56.5393 93.0302 58.7121 93.8405 59.4367 94.8605C59.5573 95.7917 59.0745 96.8928 56.5393 97.6549C55.1668 98.0675 52.9179 99.9412 51.469 101.465C50.2635 102.734 48.1189 105.426 47.4852 106.038C43.6975 109.698 37.4034 108.271 36.5352 106.038C35.4487 103.244 31.9528 103.237 37.6817 97.6549C40.5207 94.8888 41.9786 96.5385 44.2706 97.6549C45.8673 98.4325 50.7447 94.6561 53.642 93.8432Z" fill="url(#paint1_linear_1_3891)"/>
    <rect x="190.559" y="0.743146" width="109.698" height="90.5464" rx="8.47617" fill="#F3F3FF" stroke="#E0E0FE" stroke-width="0.513708"/>
    <ellipse cx="198.413" cy="6.31312" rx="1.40702" ry="1.39802" fill="#E8E8FF"/>
    <ellipse cx="202.914" cy="6.31312" rx="1.40702" ry="1.39802" fill="#E8E8FF"/>
    <ellipse cx="207.417" cy="6.31312" rx="1.40702" ry="1.39802" fill="#E8E8FF"/>
    <ellipse cx="245.407" cy="84.8822" rx="2.81403" ry="2.79605" fill="#E6E6FF"/>
    <ellipse cx="256.663" cy="84.8822" rx="2.81403" ry="2.79605" fill="#FFEBE0"/>
    <ellipse cx="234.15" cy="84.8822" rx="2.81403" ry="2.79605" fill="#E6E6FF"/>
    <rect x="190.814" y="10.5071" width="54.5923" height="34.1118" fill="#EAFAEA"/>
    <rect x="245.406" y="10.5071" width="54.5923" height="34.1118" fill="#EDF2FF"/>
    <rect x="190.814" y="44.6187" width="54.5923" height="34.1118" fill="#FDFAE1"/>
    <rect x="245.406" y="44.6187" width="54.5923" height="34.1118" fill="#FEF4F4"/>
    <g opacity="0.8">
        <rect x="216.704" y="32.8731" width="5.06526" height="4.47367" fill="#F0BBA2"/>
        <ellipse cx="212.454" cy="28.1708" rx="4.14409" ry="4.1176" fill="#758198"/>
        <ellipse cx="225.654" cy="28.4744" rx="4.14409" ry="4.1176" fill="#8E99A8"/>
        <path d="M211.379 22.7306C211.379 18.4074 214.884 14.9028 219.207 14.9028C223.53 14.9028 227.035 18.4074 227.035 22.7305L227.035 24.1555C227.035 28.4786 223.53 31.9832 219.207 31.9832C214.884 31.9832 211.379 28.4786 211.379 24.1555L211.379 22.7306Z" fill="#646D80"/>
        <path d="M211.379 25.6283C211.379 21.3899 214.815 17.954 219.054 17.954C223.292 17.954 226.728 21.3899 226.728 25.6282L226.728 27.3602C226.728 31.5985 223.292 35.0344 219.054 35.0344C214.815 35.0344 211.379 31.5985 211.379 27.3602L211.379 25.6283Z" fill="#FFD2BB"/>
        <path d="M220.193 17.7923C220.646 20.9218 213.694 23.9867 211.14 25.5729C210.833 23.5905 210.676 16.5713 217.74 15.5061C219.733 15.3522 220.048 16.7948 220.193 17.7923Z" fill="#646D80"/>
        <path d="M218.371 17.59C218.151 21.6033 224.855 24.855 227.253 26.3438C228.929 23.8453 226.505 14.8455 220.336 15.3225C218.831 15.6077 218.407 16.9323 218.371 17.59Z" fill="#707B89"/>
        <path d="M221.205 29.7839C221.205 30.3065 220.996 30.8077 220.624 31.1773C220.252 31.5469 219.748 31.7546 219.222 31.7547C218.696 31.7547 218.191 31.5472 217.82 31.1777C217.448 30.8083 217.239 30.3071 217.239 29.7845L219.222 29.7842L221.205 29.7839Z" fill="white"/>
        <path d="M205.448 44.6168C205.448 40.6018 208.702 37.3471 212.717 37.3471H225.756C229.77 37.3471 233.025 40.6018 233.025 44.6168H205.448Z" fill="#D5E9B5"/>
    </g>
    <g opacity="0.8">
        <path d="M270.002 64.3845L278.347 64.4691L278.347 71.2667L270.002 71.1821L270.002 64.3845Z" fill="#F2C4AC"/>
        <path d="M270.002 64.3845L278.347 64.4691L278.347 71.2667L270.002 71.1821L270.002 64.3845Z" fill="url(#paint2_linear_1_3891)" fill-opacity="0.7"/>
        <path d="M280.485 62.8172C278.868 66.352 277.724 66.4713 277.3 65.6202L274.489 56.5141L266.949 54.651L266.016 50.9246C265.691 49.6258 266.646 48.3958 267.975 48.5522C270.336 48.83 273.334 49.4135 277.3 49.7449C279.65 49.9412 281.789 50.2522 281.861 53.0213C283.462 54.3757 282.641 58.1023 280.485 62.8172Z" fill="#798D9D"/>
        <path d="M266.393 66.4855C265.222 64.8339 265.831 57.1076 266.39 54.0412C267.308 54.1157 271.403 54.6269 274.128 54.9352C275.332 55.0714 276.348 55.9816 276.64 57.1567C277.264 59.6577 278.315 63.6297 278.668 65.6215C278.011 66.1902 275.822 67.5673 272.326 68.5264C267.982 69.4162 266.861 67.1463 266.393 66.4855Z" fill="#FFCFB6"/>
        <rect width="3.41384" height="4.28447" rx="1.61953" transform="matrix(0.975041 0.221432 -0.224207 0.974678 276.472 59.0569)" fill="#F9CBB4"/>
        <path d="M265.15 51.267C265.253 49.1819 267.099 47.6238 269.172 47.8714L278.876 49.0302C280.681 49.2457 282.009 50.8301 281.906 52.6448C281.797 54.5712 280.123 56.0257 278.2 55.8651L268.462 55.0514C266.519 54.8892 265.053 53.2137 265.15 51.267Z" fill="#6C8598"/>
        <path d="M270.911 63.9796C270.862 64.4222 270.639 64.8275 270.29 65.1065C269.941 65.3855 269.494 65.5153 269.049 65.4673C268.604 65.4192 268.196 65.1974 267.915 64.8505C267.634 64.5035 267.503 64.06 267.552 63.6174L269.231 63.7985L270.911 63.9796Z" fill="white"/>
    </g>
    <path d="M258.352 78.7301C258.352 74.4063 261.857 70.9012 266.18 70.9012H280.351C284.675 70.9012 288.18 74.4063 288.18 78.7301H258.352Z" fill="#FBDBDB"/>
    <ellipse cx="263.655" cy="24.6317" rx="1.51124" ry="1.8019" fill="#FDD9C6"/>
    <ellipse cx="280.581" cy="24.6317" rx="1.51124" ry="1.8019" fill="#FDD9C6"/>
    <path d="M263.958 22.6651C263.958 18.1128 267.648 14.4224 272.201 14.4224C276.753 14.4224 280.443 18.1128 280.443 22.6651L280.443 24.5253C280.443 29.0777 276.753 32.768 272.201 32.768C267.648 32.768 263.958 29.0777 263.958 24.5253L263.958 22.6651Z" fill="#FFD2BB"/>
    <mask id="mask2_1_3891" style="mask-type:alpha" maskUnits="userSpaceOnUse" x="263" y="14" width="18" height="19">
        <path d="M263.958 22.6651C263.958 18.1128 267.648 14.4224 272.201 14.4224C276.753 14.4224 280.443 18.1128 280.443 22.6651L280.443 24.5253C280.443 29.0777 276.753 32.768 272.201 32.768C267.648 32.768 263.958 29.0777 263.958 24.5253L263.958 22.6651Z" fill="#FFD2BB"/>
    </mask>
    <g mask="url(#mask2_1_3891)">
        <ellipse cx="272.119" cy="14.7231" rx="3.92923" ry="2.10221" fill="white"/>
        <ellipse cx="2.9184" cy="2.11552" rx="2.9184" ry="2.11552" transform="matrix(0.127605 -0.991825 0.99203 0.126005 260.936 26.2165)" fill="white"/>
        <ellipse cx="2.9184" cy="2.11552" rx="2.9184" ry="2.11552" transform="matrix(-0.127605 -0.991825 -0.99203 0.126005 284.012 26.2165)" fill="white"/>
    </g>
    <path d="M256.1 44.6193C256.1 39.369 260.356 35.1128 265.606 35.1128H279.236C284.486 35.1128 288.742 39.369 288.742 44.6193H256.1Z" fill="#D8E3FF"/>
    <path d="M266.074 34.544C264.601 32.9475 263.353 26.4349 263.958 24.6333C264.864 24.0327 265.166 27.9368 267.585 27.9368C269.095 27.9368 270.494 25.5342 272.723 25.5342C274.952 25.5342 277.257 29.4383 278.466 27.0358C279.675 24.6333 279.675 24.4331 280.279 24.333C280.582 25.8346 280.786 32.5307 277.257 35.745C273.63 39.0482 269.398 38.1475 266.074 34.544Z" fill="white"/>
    <path d="M271.212 29.4375C271.716 30.0385 273.025 30.88 274.234 29.4375" stroke="#AFB7C7" stroke-width="0.55176" stroke-linecap="round"/>
    <g opacity="0.8">
        <ellipse cx="214.834" cy="52.8266" rx="5.44683" ry="5.41201" fill="#F2A660"/>
        <path fill-rule="evenodd" clip-rule="evenodd" d="M218.989 67.713C215.689 67.2091 213.158 65.3757 213.158 60.3213C213.158 54.1259 217.061 49.9407 221.421 49.9407C225.781 49.9407 229.847 54.1259 229.847 60.3213C229.847 65.3757 227.075 67.2091 223.686 67.713H218.989Z" fill="#F2A660"/>
        <rect width="5.99376" height="8.35057" transform="matrix(-1 0 0 1 222.94 64.6112)" fill="#F9C2A5"/>
        <path d="M215.154 60.4272C215.154 65.5414 219.891 69.946 223.598 69.946C227.305 69.946 229.343 65.5414 229.343 60.4272C229.343 55.313 225.886 51.8582 222.179 51.8582C218.472 51.8582 215.154 55.313 215.154 60.4272Z" fill="#FED7C2"/>
        <path d="M229.238 57.9511C229.284 56.8378 228.926 55.7456 228.23 54.8729L226.04 52.126C225.584 51.5537 224.804 51.3467 224.12 51.6167C222.838 52.1232 222.692 53.8703 223.874 54.5758L226.848 56.3505C226.868 56.3623 226.887 56.3742 226.907 56.3864C227.077 56.4932 227.952 57.0432 228.323 57.3062C228.736 57.5982 229.21 58.6312 229.21 58.6312L229.238 57.9511Z" fill="#F2A660"/>
        <path d="M213.709 59.9545C213.352 59.0782 213.543 58.0756 214.197 57.3887L219.749 51.5548C220.413 50.8571 221.417 50.5941 222.341 50.8764C224.169 51.4351 224.743 53.7254 223.392 55.071L217.684 60.7547C216.453 61.9805 214.362 61.5596 213.709 59.9545Z" fill="#F2A660"/>
        <rect width="2.08447" height="3.69255" rx="1.04223" transform="matrix(-0.987728 0.156183 0.15815 0.987415 216.941 60.4146)" fill="#FEDECE"/>
        <path d="M215.317 73.8331C215.317 73.097 215.914 72.5004 216.65 72.5004H223.205C223.941 72.5004 224.537 73.097 224.537 73.8331V74.0597H215.317V73.8331Z" fill="white"/>
    </g>
    <path d="M206.854 78.7306C206.854 74.3408 210.565 70.8652 214.946 71.1521L225.663 71.8543C229.786 72.1244 233.348 74.8312 234.713 78.7306H206.854Z" fill="#EDE7B0"/>
    <path d="M176.697 125.971H240.316L219.09 162.922H155.471L176.697 125.971Z" fill="#C5C5EE"/>
    <rect y="125.411" width="265.164" height="5.31664" rx="2.65832" fill="#E3E4FB"/>
    <path d="M177.172 130.727H213.904L214.628 136.26L177.172 138.997V130.727Z" fill="white"/>
    <path d="M146.316 142.41L176.777 134.272H199.06L159.138 162.922H141.203L139.914 161.242C134.725 154.477 138.08 144.611 146.316 142.41Z" fill="#2F3152"/>
    <path d="M216.362 151.764C217.923 145.156 216.441 139.973 214.146 134.272H181.623L154.663 143.371C147.342 145.842 144.251 154.504 148.354 161.052L149.526 162.922L170.356 163H194.988C207.669 163 214.31 160.452 216.362 151.764Z" fill="#494B6D"/>
    <path d="M176.253 42.0926L203.198 37.3305L217.408 67.3553C218.61 69.8955 216.758 72.8222 213.947 72.8222H180.081C177.967 72.8222 176.252 71.1079 176.252 68.9932L176.253 42.0926Z" fill="#2F3040"/>
    <path d="M205.753 47.8526C205.753 59.2501 198.573 70.0297 190.551 70.0297C182.53 70.0297 175.049 59.2501 175.049 47.8526C175.049 36.4551 182.53 28.7557 190.551 28.7557C198.573 28.7557 205.753 36.4551 205.753 47.8526Z" fill="#2F3040"/>
    <rect x="187.747" y="55.7445" width="11.0266" height="15.3624" fill="#FACEB7"/>
    <mask id="mask3_1_3891" style="mask-type:alpha" maskUnits="userSpaceOnUse" x="187" y="55" width="12" height="17">
        <rect x="187.747" y="55.7445" width="11.0266" height="15.3624" fill="#FFD6BC"/>
    </mask>
    <g mask="url(#mask3_1_3891)">
        <path d="M207.121 49.3053C207.121 58.1185 201.404 66.454 195.016 66.454C188.628 66.454 182.671 58.1185 182.671 49.3053C182.671 40.4921 188.628 34.5384 195.016 34.5384C201.404 34.5384 207.121 40.4921 207.121 49.3053Z" fill="#F3BFA2"/>
    </g>
    <path d="M202.075 48.1234C202.075 56.9366 193.277 65.2911 186.889 65.2911C180.501 65.2911 177.625 56.9366 177.625 48.1234C177.625 39.3101 183.582 33.3565 189.97 33.3565C196.358 33.3565 202.075 39.3101 202.075 48.1234Z" fill="url(#paint3_linear_1_3891)"/>
    <path d="M188.961 56.8852L182.523 57.3969C182.652 58.2071 183.682 59.8275 185.742 59.8275C187.416 59.8275 188.789 57.9939 188.961 56.8852Z" fill="white"/>
    <path d="M176.352 42.7168L180.081 34.0811C180.65 32.7639 182.096 32.0505 183.493 32.3976C185.64 32.9312 186.437 35.549 184.95 37.1828L178.609 44.1453C177.582 45.2733 175.757 44.1181 176.352 42.7168Z" fill="#2F3040"/>
    <path d="M204.735 47.1794C205.391 45.5673 205.041 43.723 203.838 42.4593L193.624 31.7267C192.403 30.4431 190.554 29.9594 188.855 30.4787C185.492 31.5066 184.436 35.7201 186.922 38.1954L197.422 48.6516C199.687 50.9067 203.533 50.1324 204.735 47.1794Z" fill="#2F3040"/>
    <rect width="3.83473" height="6.79309" rx="1.91737" transform="matrix(0.987728 0.156183 -0.158149 0.987415 198.785 48.0229)" fill="#FFD1B4"/>
    <path d="M194.043 88.7849H250.832C254.89 88.7849 257.475 93.1183 255.549 96.6889L240.052 125.411H173.605L194.043 88.7849Z" fill="#D7D7F6"/>
    <path d="M169.462 91.519C170.064 79.1567 186.118 73.8728 192.138 70.9816L181.503 102.248L179.025 120.941C178.663 123.673 176.333 125.714 173.577 125.714H136.652V121.826L167.349 117.606C168.082 117.505 168.689 116.976 168.809 116.246C169.554 111.704 168.859 103.9 169.462 91.519Z" fill="#FFCDB3"/>
    <mask id="mask4_1_3891" style="mask-type:alpha" maskUnits="userSpaceOnUse" x="136" y="70" width="57" height="56">
        <path d="M169.462 91.519C170.064 79.1567 186.118 73.8728 192.138 70.9816L181.503 102.248L179.025 120.941C178.663 123.673 176.333 125.714 173.577 125.714H136.652V121.826L167.349 117.606C168.082 117.505 168.689 116.976 168.809 116.246C169.554 111.704 168.859 103.9 169.462 91.519Z" fill="#FFD6BC"/>
    </mask>
    <g mask="url(#mask4_1_3891)">
        <path d="M162.119 67.2311L199.632 69.6133L196.012 100.546L157.658 95.1564L162.119 67.2311Z" fill="#FF7E65"/>
    </g>
    <path d="M202.903 70.4796C202.779 70.455 202.629 70.0017 202.46 69.3709C201.841 67.0658 199.733 65.874 197.398 66.3662L187.613 68.4283C185.91 68.7872 184.788 70.4186 185.063 72.1371L176.019 82.0142L173.798 88.4354C173.049 90.6 172.818 92.91 173.123 95.1801L177.196 125.45H212.554C212.554 116.432 212.339 103.052 215.093 99.292L217.872 102.655L228.564 96.5842L222.561 81.4972C220.952 77.4535 217.63 74.3255 213.433 73.1759C208.277 71.7639 203.152 70.5293 202.903 70.4796Z" fill="url(#paint4_linear_1_3891)"/>
    <path d="M236.284 117.57L228.564 96.5862L217.566 102.354L222.079 112.163C222.25 112.535 221.968 112.958 221.558 112.941L199.847 112.067L200.153 119.048L231.314 123.68C234.753 124.192 237.485 120.833 236.284 117.57Z" fill="#FFD6BC"/>
    <rect x="140.905" y="122.032" width="49.9912" height="3.66703" rx="1.53121" fill="#EEEEFF"/>
    <path d="M103.068 95.76C102.126 93.6088 103.702 91.1987 106.051 91.1987H147.959C150.762 91.1987 153.299 92.8578 154.422 95.4253L167.671 125.702H116.17L103.068 95.76Z" fill="white"/>
    <ellipse cx="4.26463" cy="4.04031" rx="4.26463" ry="4.04031" transform="matrix(0.999672 -0.0255914 0.0259215 0.999664 127.231 106.11)" fill="#F5F5FF"/>
    <rect x="0.823193" y="0.849491" width="5.04781" height="7.43321" rx="1.9519" transform="matrix(0.999878 0.0156191 -0.0158207 0.999875 182.957 106.416)" stroke="#E0E0EE" stroke-width="1.67306"/>
    <rect width="12.2198" height="14.8775" rx="1.11537" transform="matrix(0.999878 0.0156295 -0.0158101 0.999875 174.436 103.553)" fill="#E4E4FF"/>
    <path d="M196.519 110.71C196.953 111.224 200.048 111.822 203.035 112.119L203.035 119.208C199.762 118.923 191.081 117.981 189.322 117.53C188.51 117.322 187.37 115.871 187.746 115.01C187.025 114.881 186.428 113.397 187.025 112.804C186.185 112.135 186.08 110.97 186.727 110.43C185.233 109.837 185.694 107.682 185.991 107.708L191.941 108.226C194.916 108.485 195.976 110.067 196.519 110.71Z" fill="#FFD6BC"/>
    <rect x="21.4033" y="130.137" width="4.75631" height="32.4906" fill="#E3E4FB"/>
    <rect x="233.059" y="130.137" width="4.75631" height="32.4906" fill="#E3E4FB"/>
    <rect x="25.5645" y="130.727" width="207.494" height="10.0425" fill="#D6D7F4"/>
    <defs>
        <linearGradient id="paint0_linear_1_3891" x1="137.444" y1="70.8857" x2="112.455" y2="26.6403" gradientUnits="userSpaceOnUse">
            <stop stop-color="#D6DBEC"/>
            <stop offset="1" stop-color="#F3F7FA"/>
        </linearGradient>
        <linearGradient id="paint1_linear_1_3891" x1="59.4529" y1="97.1391" x2="32.9142" y2="104.755" gradientUnits="userSpaceOnUse">
            <stop stop-color="#E46E00"/>
            <stop offset="1" stop-color="#EF8001"/>
        </linearGradient>
        <linearGradient id="paint2_linear_1_3891" x1="273.498" y1="67.6509" x2="273.479" y2="69.4969" gradientUnits="userSpaceOnUse">
            <stop stop-color="#E0A282"/>
            <stop offset="1" stop-color="#E1A585" stop-opacity="0"/>
        </linearGradient>
        <linearGradient id="paint3_linear_1_3891" x1="177.767" y1="47.728" x2="195.591" y2="51.9138" gradientUnits="userSpaceOnUse">
            <stop stop-color="#FFE9D9"/>
            <stop offset="1" stop-color="#FFD0B4"/>
        </linearGradient>
        <linearGradient id="paint4_linear_1_3891" x1="184.638" y1="71.9592" x2="219.631" y2="118.899" gradientUnits="userSpaceOnUse">
            <stop stop-color="#FF8267"/>
            <stop offset="1" stop-color="#FF6158"/>
        </linearGradient>
    </defs>
</svg>
